<?xml version="1.0" encoding="iso-8859-1"?>
<!-- Generator: Adobe Illustrator 18.1.1, SVG Export Plug-In . SVG Version: 6.00 Build 0)  -->
<svg version="1.1" id="Capa_1" xmlns="http://www.w3.org/2000/svg" xmlns:xlink="http://www.w3.org/1999/xlink" x="0px" y="0px"
	 viewBox="0 0 309.309 309.309" style="enable-background:new 0 0 309.309 309.309;" xml:space="preserve">
<g>
	<g>
		<g>
			<path style="fill:#010002;" d="M179.84,186.217l-2.121-0.919V23.051C177.719,10.34,167.374,0,154.663,0
				c-12.711,0-23.056,10.34-23.056,23.051v162.247l-2.121,0.919c-23.66,10.111-38.949,33.265-38.949,58.976
				c0,35.359,28.767,64.116,64.121,64.116s64.116-28.756,64.116-64.116C218.778,219.483,203.5,196.328,179.84,186.217z
				 M154.662,284.224c-21.615,0-39.134-17.525-39.134-39.129c0-19.097,13.728-34.81,31.819-38.258v-67.602
				c0-4.047,3.28-7.321,7.316-7.321c4.047,0,7.321,3.274,7.321,7.321v67.602c18.085,3.448,31.808,19.162,31.808,38.258
				C193.791,266.705,176.272,284.224,154.662,284.224z"/>
		</g>
	</g>
</g>
<g>
</g>
<g>
</g>
<g>
</g>
<g>
</g>
<g>
</g>
<g>
</g>
<g>
</g>
<g>
</g>
<g>
</g>
<g>
</g>
<g>
</g>
<g>
</g>
<g>
</g>
<g>
</g>
<g>
</g>
</svg>
