<?xml version="1.0" encoding="iso-8859-1"?>
<!-- Generator: Adobe Illustrator 19.0.0, SVG Export Plug-In . SVG Version: 6.00 Build 0)  -->
<svg version="1.1" id="Capa_1" xmlns="http://www.w3.org/2000/svg" xmlns:xlink="http://www.w3.org/1999/xlink" x="0px" y="0px"
	 viewBox="0 0 60 60" style="enable-background:new 0 0 60 60;" xml:space="preserve">
<g>
	<path d="M41.399,45.202C38.091,47.687,34.149,49,30,49c-10.477,0-19-8.523-19-19s8.523-19,19-19c3.007,0,5.882,0.682,8.546,2.026
		c0.495,0.252,1.096,0.051,1.343-0.442c0.249-0.493,0.051-1.095-0.442-1.343C36.501,9.754,33.323,9,30,9C18.42,9,9,18.42,9,30
		s9.42,21,21,21c4.586,0,8.943-1.452,12.601-4.199c0.441-0.332,0.531-0.959,0.199-1.4C42.468,44.959,41.842,44.871,41.399,45.202z"
		/>
	<path d="M36.396,15.33C34.375,14.448,32.223,14,30,14c-8.822,0-16,7.178-16,16s7.178,16,16,16c1.829,0,3.624-0.307,5.333-0.911
		c0.521-0.184,0.793-0.755,0.609-1.276s-0.756-0.794-1.276-0.609C33.171,43.732,31.602,44,30,44c-7.72,0-14-6.28-14-14
		s6.28-14,14-14c1.945,0,3.828,0.391,5.596,1.163c0.502,0.218,1.095-0.01,1.316-0.517C37.133,16.141,36.902,15.551,36.396,15.33z"/>
	<path d="M30,8c0.552,0,1-0.448,1-1V1c0-0.552-0.448-1-1-1s-1,0.448-1,1v6C29,7.552,29.448,8,30,8z"/>
	<path d="M30,52c-0.552,0-1,0.448-1,1v6c0,0.552,0.448,1,1,1s1-0.448,1-1v-6C31,52.448,30.552,52,30,52z"/>
	<path d="M8,30c0-0.552-0.448-1-1-1H1c-0.552,0-1,0.448-1,1s0.448,1,1,1h6C7.552,31,8,30.552,8,30z"/>
	<path d="M13.029,45.557l-5.736,5.736c-0.391,0.391-0.391,1.023,0,1.414C7.488,52.902,7.744,53,8,53s0.512-0.098,0.707-0.293
		l5.736-5.736c0.391-0.391,0.391-1.023,0-1.414S13.42,45.166,13.029,45.557z"/>
	<path d="M13.029,14.443c0.195,0.195,0.451,0.293,0.707,0.293s0.512-0.098,0.707-0.293c0.391-0.391,0.391-1.023,0-1.414L8.707,7.293
		c-0.391-0.391-1.023-0.391-1.414,0s-0.391,1.023,0,1.414L13.029,14.443z"/>
	<path d="M9.749,38.596c-0.216-0.508-0.803-0.746-1.311-0.53l-2.762,1.172c-0.508,0.216-0.746,0.803-0.53,1.311
		c0.162,0.381,0.532,0.61,0.921,0.61c0.13,0,0.263-0.026,0.39-0.08l2.762-1.172C9.728,39.691,9.965,39.104,9.749,38.596z"/>
	<path d="M5.519,21.188L8.3,22.312c0.123,0.049,0.25,0.073,0.374,0.073c0.396,0,0.771-0.236,0.928-0.626
		c0.207-0.512-0.041-1.095-0.553-1.302l-2.782-1.124c-0.513-0.207-1.095,0.04-1.302,0.553C4.759,20.397,5.006,20.98,5.519,21.188z"
		/>
	<path d="M20.093,9.219c0.162,0.381,0.532,0.61,0.921,0.61c0.13,0,0.263-0.026,0.39-0.08c0.508-0.216,0.746-0.803,0.53-1.311
		l-1.172-2.762c-0.215-0.509-0.802-0.747-1.311-0.53c-0.508,0.216-0.746,0.803-0.53,1.311L20.093,9.219z"/>
	<path d="M21.759,50.398c-0.511-0.205-1.095,0.04-1.302,0.553l-1.124,2.782c-0.207,0.512,0.041,1.095,0.553,1.302
		c0.123,0.049,0.25,0.073,0.374,0.073c0.396,0,0.771-0.236,0.928-0.626l1.124-2.782C22.519,51.188,22.271,50.605,21.759,50.398z"/>
	<path d="M44,11c3.86,0,7,3.14,7,7s-3.14,7-7,7H26c-0.552,0-1,0.448-1,1s0.448,1,1,1h18c4.962,0,9-4.038,9-9s-4.038-9-9-9
		c-0.552,0-1,0.448-1,1S43.448,11,44,11z"/>
	<path d="M51,37H31c-0.552,0-1,0.448-1,1s0.448,1,1,1h20c3.86,0,7,3.14,7,7s-3.14,7-7,7c-0.552,0-1,0.448-1,1s0.448,1,1,1
		c4.962,0,9-4.038,9-9S55.962,37,51,37z"/>
	<path d="M40,19c0.552,0,1-0.448,1-1c0-1.654,1.346-3,3-3s3,1.346,3,3s-1.346,3-3,3c-0.552,0-1,0.448-1,1s0.448,1,1,1
		c2.757,0,5-2.243,5-5s-2.243-5-5-5s-5,2.243-5,5C39,18.552,39.448,19,40,19z"/>
	<path d="M56,46c0-2.757-2.243-5-5-5c-0.552,0-1,0.448-1,1s0.448,1,1,1c1.654,0,3,1.346,3,3s-1.346,3-3,3s-3-1.346-3-3
		c0-0.552-0.448-1-1-1s-1,0.448-1,1c0,2.757,2.243,5,5,5S56,48.757,56,46z"/>
	<path d="M45,41h-6c-0.552,0-1,0.448-1,1s0.448,1,1,1h6c0.552,0,1-0.448,1-1S45.552,41,45,41z"/>
	<path d="M33,22c0,0.552,0.448,1,1,1h6c0.552,0,1-0.448,1-1s-0.448-1-1-1h-6C33.448,21,33,21.448,33,22z"/>
	<path d="M22,29c-0.552,0-1,0.448-1,1s0.448,1,1,1h31c0.552,0,1-0.448,1-1s-0.448-1-1-1H22z"/>
	<path d="M25,34c0,0.552,0.448,1,1,1h33c0.552,0,1-0.448,1-1s-0.448-1-1-1H26C25.448,33,25,33.448,25,34z"/>
</g>
<g>
</g>
<g>
</g>
<g>
</g>
<g>
</g>
<g>
</g>
<g>
</g>
<g>
</g>
<g>
</g>
<g>
</g>
<g>
</g>
<g>
</g>
<g>
</g>
<g>
</g>
<g>
</g>
<g>
</g>
</svg>
